<?xml version="1.0" encoding="UTF-8"?>
<svg width="32px" height="38px" viewBox="0 0 32 38" version="1.1" xmlns="http://www.w3.org/2000/svg" xmlns:xlink="http://www.w3.org/1999/xlink">
    <!-- Generator: Sketch 49.1 (51147) - http://www.bohemiancoding.com/sketch -->
    <title>noun_Download_446205</title>
    <desc>Created with Sketch.</desc>
    <defs></defs>
    <g id="Page-1" stroke="none" stroke-width="1" fill="none" fill-rule="evenodd">
        <g id="Desktop-Copy" transform="translate(-532.000000, -509.000000)" fill="#FAFAFA" fill-rule="nonzero">
            <g id="noun_Download_446205" transform="translate(532.000000, 509.000000)">
                <path d="M31.0239382,20.0648649 C30.0355212,19.0764479 28.4540541,19.0764479 27.5644788,20.0648649 L18.4710425,29.1583012 L18.4710425,2.27335907 C18.4710425,0.988416988 17.3837838,0 16,0 C14.6162162,0 13.5289575,0.988416988 13.5289575,2.27335907 L13.5289575,29.1583012 L4.43552124,20.0648649 C3.44710425,19.0764479 1.86563707,19.0764479 0.976061776,20.0648649 C-0.0123552124,21.0532819 -0.0123552124,22.634749 0.976061776,23.5243243 L14.2208494,36.769112 C14.7150579,37.2633205 15.3081081,37.4610039 16,37.4610039 C16.6918919,37.4610039 17.2849421,37.2633205 17.7791506,36.769112 L31.0239382,23.5243243 C32.0123552,22.634749 32.0123552,21.0532819 31.0239382,20.0648649 Z" id="Shape"></path>
            </g>
        </g>
    </g>
</svg>