<?xml version="1.0" encoding="UTF-8"?>
<svg width="32px" height="26px" viewBox="0 0 32 26" version="1.1" xmlns="http://www.w3.org/2000/svg" xmlns:xlink="http://www.w3.org/1999/xlink">
    <!-- Generator: Sketch 49.1 (51147) - http://www.bohemiancoding.com/sketch -->
    <title>noun_Mail_444095</title>
    <desc>Created with Sketch.</desc>
    <defs></defs>
    <g id="Page-1" stroke="none" stroke-width="1" fill="none" fill-rule="evenodd">
        <g id="Desktop-Copy" transform="translate(-388.000000, -515.000000)" fill="#FAFAFA" fill-rule="nonzero">
            <g id="noun_Mail_444095" transform="translate(388.000000, 515.000000)">
                <path d="M30.329342,0 L1.66644736,0 C0.73323684,0 0,0.73323684 0,1.66644736 L0,23.6635526 C0,24.5967631 0.73323684,25.3299999 1.66644736,25.3299999 L30.329342,25.3299999 C31.2625525,25.3299999 31.9957894,24.5967631 31.9957894,23.6635526 L31.9957894,1.66644736 C31.9957894,0.73323684 31.2625525,0 30.329342,0 Z M25.9965789,3.33289473 L15.9978947,12.2650526 L5.99921051,3.33289473 L25.9965789,3.33289473 Z M3.33289473,21.9971052 L3.33289473,5.39928946 L13.7981842,14.7313947 C14.4647631,15.2646578 15.198,15.5979473 15.9978947,15.5979473 C16.7977894,15.5979473 17.5976842,15.3313157 18.1976052,14.7313947 L28.6628947,5.39928946 L28.6628947,21.9971052 L3.33289473,21.9971052 Z" id="Shape"></path>
            </g>
        </g>
    </g>
</svg>