<?xml version="1.0" encoding="UTF-8"?>
<svg width="32px" height="32px" viewBox="0 0 32 32" version="1.1" xmlns="http://www.w3.org/2000/svg" xmlns:xlink="http://www.w3.org/1999/xlink">
    <!-- Generator: Sketch 49.1 (51147) - http://www.bohemiancoding.com/sketch -->
    <title>noun_Phone_445782</title>
    <desc>Created with Sketch.</desc>
    <defs></defs>
    <g id="Page-1" stroke="none" stroke-width="1" fill="none" fill-rule="evenodd">
        <g id="Desktop-Copy" transform="translate(-460.000000, -512.000000)" fill="#FAFAFA" fill-rule="nonzero">
            <g id="noun_Phone_445782" transform="translate(460.000000, 512.000000)">
                <path d="M22.7287503,31.2193754 C21.8796878,31.2193754 20.9653128,31.0887504 19.9203127,30.7621879 C16.7853127,29.7825004 13.1278127,27.2353128 8.88250011,22.9900003 C0.718437509,14.6953127 -1.43687502,8.4906251 2.61250003,4.44125005 C5.68218757,1.37156252 7.9681251,0.195937502 8.0987501,0.195937502 C8.75187511,-0.130625002 9.53562512,7.94503352e-16 10.0581251,0.587812507 L15.4790627,6.66187508 C15.9362502,7.18437509 16.0015627,7.9681251 15.6750002,8.5559376 L13.4543752,12.2787501 C13.8462502,12.9318752 14.6300002,14.1728127 16.1975002,15.7403127 C17.7650002,17.3078127 19.0059377,18.0915627 19.6590627,18.4834377 L23.3818753,16.1975002 C23.9696878,15.8056252 24.7534378,15.9362502 25.2759378,16.3934377 L31.3500004,21.8143753 C31.8725004,22.3368753 32.0684379,23.1206253 31.7418754,23.7737503 C31.6765629,23.8390628 30.5009379,26.1903128 27.4965628,29.2600004 C26.5168753,30.2396879 24.9493753,31.2193754 22.7287503,31.2193754 Z M8.4906251,3.72281255 C7.64156259,4.31062505 6.40062508,5.22500006 4.89843756,6.72718758 C1.56750002,10.0581251 7.44562509,16.8506252 11.2337501,20.6387503 C15.0871877,24.4921878 18.3528127,26.8434378 20.9653128,27.6271878 C23.3818753,28.4109378 24.5575003,27.6271878 25.2106253,26.9087503 C26.7128128,25.4065628 27.6271878,24.1656253 28.2150003,23.3165628 L24.0350003,19.6590627 L20.6387503,21.6837503 C20.2468752,21.9450003 19.7896877,21.9450003 19.3325002,21.8143753 C19.0712502,21.7490628 16.9159377,21.0306253 13.9115627,18.0262502 C10.9071876,15.0218752 10.1887501,12.8665627 10.1234376,12.6053127 C9.99281262,12.1481251 10.0581251,11.6909376 10.2540626,11.2990626 L12.2787501,7.9028126 L8.4906251,3.72281255 Z" id="Shape"></path>
            </g>
        </g>
    </g>
</svg>