<?xml version="1.0" encoding="UTF-8"?>
<svg width="32px" height="27px" viewBox="0 0 32 27" version="1.1" xmlns="http://www.w3.org/2000/svg" xmlns:xlink="http://www.w3.org/1999/xlink">
    <!-- Generator: Sketch 49.1 (51147) - http://www.bohemiancoding.com/sketch -->
    <title>noun_Twitter_2012208</title>
    <desc>Created with Sketch.</desc>
    <defs></defs>
    <g id="Page-1" stroke="none" stroke-width="1" fill="none" fill-rule="evenodd">
        <g id="Desktop-Copy" transform="translate(-604.000000, -514.000000)" fill="#FAFAFA" fill-rule="nonzero">
            <g id="noun_Twitter_2012208" transform="translate(604.000000, 514.000000)">
                <path d="M31.1255353,3.39374995 C31.3194638,2.55339282 31.028571,1.68071426 30.349821,1.16357141 C29.9296424,0.840357131 29.4124996,0.646428562 28.9276782,0.646428562 C28.5721425,0.646428562 28.1842853,0.743392847 27.861071,0.937321415 L27.7641068,1.00196427 C27.7317853,1.0342857 27.634821,1.06660713 27.5701782,1.09892856 C27.5378568,1.09892856 27.5055353,1.13124998 27.4732139,1.13124998 C26.9883925,1.35749998 26.5035711,1.61607141 25.9864282,1.77767855 C24.6289282,0.743392847 23.0451782,0.226249997 21.3321426,0.226249997 C21.0412497,0.226249997 20.7503569,0.226249997 20.459464,0.258571425 C18.8433926,0.420178566 17.3889283,1.06660713 16.1283926,2.13321426 C14.6739284,3.42607138 13.8012498,4.97749993 13.510357,6.7874999 C10.569107,6.10874991 8.17732131,4.62196422 6.17339277,2.2948214 L5.9794642,2.03624997 C5.55928564,1.55142855 4.91285707,1.22821427 4.23410708,1.22821427 L4.00785709,1.22821427 C3.23214281,1.35749998 2.58571425,1.77767855 2.26249997,2.39178568 C1.2605357,4.16946423 0.969642844,6.07642849 1.42214284,8.0480356 C1.48678569,8.33892845 1.55142855,8.59749988 1.64839283,8.88839273 C1.35749998,9.27624987 1.16357141,9.79339272 1.16357141,10.2782141 C1.16357141,12.1851784 1.74535712,13.8658927 2.90892853,15.2557141 L2.97357139,15.3203569 C3.03821424,15.4173212 3.1028571,15.4819641 3.16749996,15.5466069 C3.1028571,15.9344641 3.13517853,16.3223212 3.29678567,16.7424998 C3.78160709,17.970714 4.42803565,19.0049997 5.23607136,19.8130354 C4.71892851,19.9099997 4.16946423,19.9746426 3.61999995,19.9746426 C3.3291071,19.9746426 2.97357139,19.9423211 2.61803568,19.9099997 L2.39178568,19.9099997 C1.51910712,19.9099997 0.743392847,20.3948211 0.387857137,21.1705354 C-0.0323214281,21.9785711 0.0969642844,22.9805354 0.67874999,23.6916068 C0.872678559,23.9178568 1.0342857,24.0794639 1.29285712,24.2087497 C3.13517853,25.3399996 5.07446421,26.1157139 7.04607133,26.5358925 C7.88642846,26.6974996 8.79142845,26.8591068 9.76107129,26.8914282 L12.0882141,26.8914282 C12.3144641,26.8914282 12.5083927,26.8914282 12.7023213,26.8591068 C13.8012498,26.7621425 14.9001784,26.5682139 15.9667855,26.2773211 C19.3928569,25.4369639 22.3017854,23.5946425 24.5966068,20.8149997 C27.408571,17.518214 28.8953567,13.6719641 29.0569639,9.40553558 C29.0892853,9.3085713 29.0892853,9.21160701 29.0892853,9.11464273 C29.6064282,8.66214274 30.0589281,8.17732131 30.5114281,7.69249989 C30.8346424,7.30464275 31.1578567,6.91678562 31.481071,6.4319642 C31.7396424,6.04410706 31.9012496,5.59160706 31.9012496,5.13910707 C31.9012496,4.46035708 31.6103567,3.84624995 31.1255353,3.39374995 Z M26.5358925,9.11464273 C26.4066068,12.8639284 25.1137496,16.2576783 22.6573211,19.1666069 C20.6533926,21.4937497 18.1323212,23.0774997 15.2233926,23.853214 C14.3830355,24.0794639 13.4457141,24.2410711 12.4437498,24.3703568 L9.76107129,24.3703568 C8.98535702,24.3703568 8.20964274,24.2410711 7.56321418,24.0794639 C6.17339277,23.7885711 4.88053565,23.3037497 3.61999995,22.6573211 C4.75124993,22.6573211 5.78553563,22.495714 6.7874999,22.2371425 C8.2742856,21.8492854 9.59946415,21.138214 10.795357,20.2008926 L11.4094641,19.6837497 L10.6014284,19.6191069 C8.33892845,19.4251783 6.7874999,18.3908926 5.88249992,16.4516069 C6.04410706,16.4516069 6.2057142,16.4516069 6.36732134,16.4516069 C6.88446419,16.4516069 7.43392847,16.3869641 7.95107132,16.2576783 L9.21160701,15.9344641 L7.91874989,15.6435712 C6.72285705,15.3849998 5.68857135,14.7385712 4.91285707,13.7366069 C4.23410708,12.8962498 3.87857137,11.9589284 3.78160709,10.8923213 C4.49267851,11.2155356 5.20374993,11.3771427 5.91482135,11.3771427 L6.91678562,11.3771427 L6.10874991,10.795357 C4.9451785,9.95499986 4.23410708,8.88839273 3.94321423,7.59553561 C3.68464281,6.4319642 3.81392852,5.26839278 4.29874994,4.16946423 C6.69053562,6.81982133 9.69642844,8.59749988 13.2517855,9.37321415 C13.9951784,9.53482129 14.7385712,9.63178558 15.6112498,9.69642844 L15.7405355,9.69642844 C15.8698212,9.69642844 16.1283926,9.66410701 16.1283926,9.24392844 L16.1283926,9.17928559 C16.0314283,8.72678559 15.9991069,8.24196417 16.0314283,7.78946418 C16.1283926,6.30267848 16.7101783,5.07446421 17.8737497,4.10482137 C18.7141069,3.36142852 19.6514283,2.94124996 20.685714,2.8766071 C20.7503569,2.8766071 20.8149997,2.8766071 20.911964,2.8766071 C21.0089283,2.8766071 21.138214,2.84428567 21.2674997,2.84428567 C22.6896425,2.84428567 23.9501782,3.36142852 25.0167854,4.39571422 C25.1783925,4.55732136 25.3399996,4.58964279 25.4369639,4.58964279 L25.5662496,4.58964279 C26.5035711,4.3633928 27.3762496,4.07249994 28.2489282,3.65232138 C27.7964282,4.49267851 27.1499996,5.20374993 26.3096425,5.7532142 L25.1137496,6.46428562 L26.5035711,6.30267848 C27.0530353,6.23803563 27.5701782,6.14107134 28.1196425,6.01178563 C28.313571,5.94714277 28.5074996,5.91482135 28.7337496,5.85017849 C28.6691067,5.91482135 28.6367853,5.9794642 28.5721425,6.01178563 C28.087321,6.59357134 27.4732139,7.17535704 26.7621425,7.72482132 L26.7298211,7.75714275 C26.6651782,7.8217856 26.5358925,7.95107132 26.5358925,8.17732131 L26.5358925,9.11464273 Z" id="Shape"></path>
            </g>
        </g>
    </g>
</svg>